<?xml version="1.0" standalone="no"?>
<!DOCTYPE svg PUBLIC "-//W3C//DTD SVG 20010904//EN"
 "http://www.w3.org/TR/2001/REC-SVG-20010904/DTD/svg10.dtd">
<svg version="1.0" xmlns="http://www.w3.org/2000/svg"
 width="700.000000pt" height="700.000000pt" viewBox="0 0 700.000000 700.000000"
 preserveAspectRatio="xMidYMid meet">
<metadata>
Created by potrace 1.14, written by Peter Selinger 2001-2017
</metadata>
<g transform="translate(0.000000,700.000000) scale(0.100000,-0.100000)"
fill="#000000" stroke="none">
<path d="M445 6715 c-38 -8 -96 -24 -128 -36 -56 -21 -60 -21 -94 -5 -44 21
-84 14 -115 -20 -13 -14 -29 -31 -37 -37 -52 -45 -71 -68 -71 -85 0 -11 15
-71 34 -134 18 -62 72 -246 121 -408 48 -162 90 -308 95 -325 67 -261 342
-1140 478 -1530 181 -519 425 -1082 624 -1440 30 -55 68 -122 83 -150 15 -27
37 -66 50 -85 12 -19 53 -84 91 -145 90 -145 205 -311 251 -364 41 -48 85 -71
137 -71 65 0 88 15 266 170 41 36 77 68 80 71 3 4 25 23 50 44 50 41 177 157
377 343 l132 122 17 -29 c30 -52 67 -63 240 -76 44 -3 93 -8 189 -19 17 -2 59
-7 95 -11 36 -4 74 -9 85 -11 10 -2 37 -6 60 -9 87 -13 274 -46 340 -61 39 -9
84 -18 100 -21 42 -7 328 -89 396 -114 43 -16 60 -29 79 -59 52 -83 138 -112
217 -71 61 31 89 76 98 158 6 47 6 591 0 693 -7 152 -17 327 -21 385 -2 33 -6
175 -9 315 -6 334 -14 556 -20 611 -5 45 -12 95 -21 160 l-5 36 63 23 c35 12
90 36 123 53 57 28 883 521 935 557 14 10 41 27 60 38 350 200 360 207 384
243 9 15 29 29 45 32 67 14 120 93 105 160 -56 258 -562 461 -1479 592 -22 4
-51 8 -65 10 -34 5 -174 23 -235 30 -27 3 -61 8 -75 10 -14 3 -56 7 -95 10
-38 4 -81 8 -95 10 -14 2 -52 7 -85 10 -33 4 -74 8 -91 10 -17 2 -66 7 -110
10 -43 4 -90 8 -104 10 -14 2 -56 7 -95 10 -38 3 -86 8 -105 10 -19 3 -62 7
-95 10 -33 4 -85 10 -115 15 -85 14 -111 18 -160 25 -25 3 -56 8 -70 10 -34 6
-76 13 -130 20 -25 3 -70 10 -100 15 -30 5 -77 12 -105 16 -27 3 -59 8 -70 10
-11 2 -40 6 -65 9 -25 3 -56 8 -70 10 -14 2 -45 7 -70 10 -25 3 -74 10 -110
15 -36 5 -81 12 -100 14 -19 3 -51 7 -70 10 -19 3 -55 8 -80 11 -25 3 -56 7
-70 9 -14 3 -49 7 -79 10 -29 4 -83 10 -120 15 -36 5 -95 13 -131 16 -36 4
-73 9 -84 11 -10 2 -44 6 -75 9 -31 4 -67 8 -81 10 -14 2 -56 7 -95 11 -38 3
-79 8 -90 10 -10 2 -49 6 -85 9 -36 4 -72 8 -80 10 -8 2 -42 7 -75 10 -33 4
-67 8 -75 10 -17 5 -57 10 -250 35 -171 21 -450 24 -545 5z m15 -597 c41 -30
113 -81 160 -113 47 -32 110 -79 141 -104 31 -25 73 -59 94 -76 21 -16 163
-130 314 -253 343 -278 311 -251 471 -377 235 -185 376 -302 711 -595 522
-457 723 -616 996 -790 56 -36 110 -70 120 -77 16 -11 0 -29 -158 -185 -205
-201 -658 -642 -709 -688 -19 -18 -71 -66 -115 -108 -140 -132 -197 -185 -305
-281 -58 -52 -122 -109 -142 -128 -20 -18 -40 -33 -43 -33 -11 0 -198 303
-284 460 -243 445 -443 933 -748 1820 -167 488 -182 530 -275 785 -96 265
-234 614 -288 731 -22 48 -34 82 -27 77 6 -6 46 -35 87 -65z m1285 47 c108
-11 153 -15 235 -20 47 -3 112 -7 145 -10 33 -3 94 -7 135 -10 74 -5 121 -8
295 -20 173 -13 307 -24 365 -30 19 -2 67 -7 105 -10 39 -2 86 -7 105 -10 19
-3 56 -7 83 -10 101 -11 146 -17 242 -31 55 -9 127 -20 160 -25 33 -5 71 -11
85 -14 13 -2 42 -7 65 -10 46 -7 254 -41 335 -56 30 -5 71 -12 90 -15 19 -2
46 -7 60 -10 57 -11 69 -13 105 -18 52 -9 353 -63 450 -82 44 -9 91 -18 105
-20 14 -3 95 -18 180 -35 85 -17 166 -33 180 -36 118 -20 515 -142 503 -154
-5 -4 -213 -131 -463 -281 -407 -246 -647 -391 -765 -466 -75 -47 -127 -94
-120 -109 3 -9 0 -22 -6 -30 -10 -11 -14 -11 -28 1 -9 7 -47 31 -86 51 -38 21
-74 41 -80 45 -11 8 -139 76 -330 177 -66 35 -331 169 -590 299 -258 130 -501
253 -540 274 -38 20 -115 61 -170 90 -55 29 -125 67 -155 85 -30 18 -75 44
-100 57 -25 14 -80 46 -123 72 -43 25 -82 46 -87 46 -6 0 -10 5 -10 10 0 6 -4
10 -10 10 -5 0 -53 26 -107 58 -158 95 -382 222 -390 222 -5 0 -17 7 -28 16
-21 16 -15 16 160 -1z m-25 -504 c179 -90 357 -180 395 -201 39 -20 156 -81
260 -135 105 -54 204 -105 220 -115 17 -9 71 -39 120 -65 78 -41 144 -81 413
-250 417 -261 705 -406 917 -461 136 -35 307 -20 359 31 19 19 20 13 6 -35
-19 -66 -25 -135 -25 -300 0 -145 4 -228 19 -385 9 -88 16 -185 22 -285 3 -58
7 -123 9 -145 2 -22 6 -119 10 -215 4 -96 8 -187 10 -202 1 -16 -1 -28 -6 -28
-4 0 -50 62 -100 138 -51 75 -112 166 -137 202 -90 129 -287 405 -292 410 -17
15 -105 143 -105 153 -2 54 -23 82 -169 224 -149 145 -245 233 -376 343 -36
30 -67 58 -70 61 -9 10 -364 293 -445 354 -44 33 -82 62 -85 65 -3 4 -99 78
-215 165 -115 87 -259 197 -320 244 -157 122 -486 380 -510 399 -11 10 -72 57
-135 106 -138 107 -141 109 -115 99 11 -4 167 -82 345 -172z m2082 -2281 c81
-154 187 -347 255 -464 35 -60 63 -110 63 -112 0 -2 14 -26 31 -54 17 -28 29
-53 27 -55 -2 -2 -28 2 -58 10 -46 13 -138 33 -225 51 -62 12 -198 34 -250 39
-127 13 -175 15 -320 15 -138 1 -193 -3 -252 -15 -13 -3 -23 -3 -23 0 0 3 77
81 172 173 94 92 248 244 342 338 94 94 175 170 179 170 5 -1 31 -44 59 -96z"/>
<path d="M6212 4220 c-13 -5 -29 -24 -37 -42 -11 -28 -11 -38 1 -68 17 -42 31
-55 209 -180 77 -55 175 -126 217 -159 87 -67 184 -117 241 -126 104 -15 189
95 141 183 -30 56 -91 100 -241 173 -78 38 -184 94 -235 126 -153 93 -234 119
-296 93z"/>
<path d="M5856 3665 c-37 -38 -28 -72 48 -175 85 -116 277 -286 384 -340 51
-25 134 -30 181 -10 52 21 79 101 48 141 -7 9 -55 38 -106 64 -124 62 -259
146 -346 214 -38 30 -72 57 -75 61 -3 3 -20 18 -38 33 -37 30 -73 35 -96 12z"/>
<path d="M5624 3100 c-26 -10 -54 -47 -54 -72 0 -50 300 -378 504 -551 97 -82
201 -137 262 -137 34 0 48 6 74 32 29 28 32 37 27 74 -3 27 -15 55 -31 75 -26
31 -99 91 -121 100 -36 14 -221 130 -275 172 -36 28 -124 109 -196 179 -72 71
-139 130 -150 132 -10 2 -29 0 -40 -4z"/>
<path d="M5424 2170 c-47 -19 -66 -73 -40 -118 29 -53 392 -400 531 -508 76
-59 124 -78 198 -79 63 0 71 2 93 29 20 22 24 37 22 69 -3 40 -6 44 -97 105
-82 55 -223 157 -271 195 -106 84 -168 134 -180 146 -8 9 -44 41 -80 71 -36
30 -71 61 -79 68 -14 14 -56 33 -69 31 -4 0 -17 -4 -28 -9z"/>
<path d="M4885 1430 c-30 -11 -47 -36 -50 -69 -5 -59 136 -199 496 -494 63
-51 153 -89 211 -89 44 0 56 4 75 26 29 34 30 87 3 131 -13 21 -45 46 -93 70
-134 70 -328 211 -490 355 -41 36 -108 80 -121 79 -6 0 -20 -4 -31 -9z"/>
<path d="M3982 1213 c-25 -22 -30 -60 -13 -93 44 -82 400 -433 572 -563 153
-117 279 -152 336 -94 72 72 14 148 -222 290 -133 80 -190 121 -303 224 -47
43 -107 96 -132 118 -25 22 -47 43 -50 46 -3 3 -29 24 -58 47 -59 46 -97 53
-130 25z"/>
<path d="M3120 1102 c-17 -8 -30 -21 -30 -28 0 -8 15 -45 34 -83 28 -54 64
-98 178 -212 253 -254 457 -441 526 -481 141 -82 266 29 180 160 -15 22 -71
75 -125 118 -108 85 -425 345 -433 354 -23 27 -169 124 -228 152 -68 32 -74
34 -102 20z"/>
</g>
</svg>
