<?xml version="1.0" standalone="no"?>
<!DOCTYPE svg PUBLIC "-//W3C//DTD SVG 20010904//EN"
 "http://www.w3.org/TR/2001/REC-SVG-20010904/DTD/svg10.dtd">
<svg version="1.0" xmlns="http://www.w3.org/2000/svg"
 width="700.000000pt" height="700.000000pt" viewBox="0 0 700.000000 700.000000"
 preserveAspectRatio="xMidYMid meet">
<metadata>
Created by potrace 1.14, written by Peter Selinger 2001-2017
</metadata>
<g transform="translate(0.000000,700.000000) scale(0.100000,-0.100000)"
fill="#000000" stroke="none">
<path d="M6439 6981 c-44 -14 -281 -141 -424 -228 -11 -7 -27 -16 -35 -20 -8
-4 -67 -37 -130 -73 -63 -36 -122 -69 -130 -73 -8 -4 -31 -17 -50 -28 -37 -23
-247 -142 -1005 -574 -562 -320 -783 -446 -810 -462 -11 -6 -33 -19 -50 -27
-16 -9 -37 -20 -45 -26 -12 -8 -349 -200 -540 -308 -25 -14 -270 -153 -545
-310 -275 -157 -615 -350 -755 -429 -140 -80 -284 -162 -320 -183 -36 -21 -82
-47 -103 -59 -21 -12 -214 -122 -430 -245 -500 -284 -461 -263 -688 -391 -261
-147 -326 -211 -365 -359 -27 -102 -2 -271 51 -353 51 -78 140 -149 230 -185
62 -24 819 -340 935 -390 311 -133 446 -185 455 -174 6 6 53 49 105 96 153
137 172 154 184 165 6 6 58 53 116 105 58 51 107 96 110 100 3 3 39 35 80 70
41 36 79 70 85 76 5 7 84 78 175 159 91 81 185 166 210 189 25 23 86 77 135
121 50 44 92 83 95 86 3 3 52 48 110 99 58 51 148 132 200 179 52 47 117 106
145 131 27 25 52 47 55 50 3 3 48 43 100 90 52 47 100 89 106 95 6 5 46 42 89
80 43 39 86 77 95 85 9 8 56 51 106 95 49 44 94 85 100 90 46 43 183 167 200
182 12 10 58 52 104 93 46 41 91 82 100 90 34 30 174 155 190 170 9 8 56 51
106 95 49 44 91 82 94 85 3 3 50 46 105 95 55 50 102 92 105 95 3 3 48 43 100
90 122 109 159 143 245 220 39 34 86 77 105 94 19 18 60 54 89 81 l55 50 -58
-75 c-31 -41 -69 -90 -84 -109 -15 -19 -78 -100 -140 -180 -62 -80 -123 -159
-136 -176 -13 -16 -241 -309 -506 -650 -265 -341 -493 -633 -506 -650 -12 -16
-186 -239 -385 -495 -198 -256 -371 -478 -384 -495 -13 -16 -76 -97 -140 -180
-64 -82 -121 -157 -128 -165 -7 -8 -101 -130 -210 -270 -109 -140 -204 -262
-210 -270 -59 -73 -108 -142 -126 -177 -46 -91 -47 -115 -46 -863 l1 -705 23
-53 c29 -64 103 -134 166 -155 69 -24 159 -17 223 18 28 15 63 43 77 61 14 19
183 270 376 559 193 289 352 525 354 525 4 0 473 -194 520 -216 17 -7 82 -34
145 -60 63 -25 133 -54 156 -65 22 -10 65 -27 94 -39 29 -12 72 -29 94 -39 39
-18 173 -73 356 -148 47 -19 99 -41 115 -48 195 -89 283 -115 380 -111 168 7
295 90 370 241 29 58 39 98 60 230 14 88 27 174 30 190 2 17 7 48 10 70 3 22
10 65 15 95 13 76 18 108 25 160 5 40 29 190 40 260 7 40 55 352 61 390 2 19
7 46 9 60 2 14 14 89 25 166 11 78 22 151 25 162 2 11 7 42 11 69 3 26 8 57
10 68 2 11 13 83 24 160 11 77 25 163 30 190 5 28 12 72 15 99 3 27 8 52 9 55
2 3 6 30 10 59 6 54 14 109 22 152 12 74 35 219 40 254 3 22 13 95 24 161 10
66 22 138 25 160 3 22 10 65 15 95 5 30 11 71 14 90 3 19 12 78 20 130 8 52
18 115 21 140 3 25 12 83 20 130 8 47 16 103 19 125 4 22 8 51 11 65 2 14 6
41 9 60 3 19 19 125 36 235 16 110 33 216 35 235 3 19 10 60 15 90 12 71 17
105 25 160 3 25 12 83 20 130 8 47 17 105 20 130 3 25 10 70 15 100 12 68 17
102 25 160 4 25 17 113 30 195 13 83 27 169 30 192 3 23 8 57 11 75 25 174 3
282 -83 395 -36 47 -121 108 -183 133 -76 30 -206 35 -281 11z"/>
</g>
</svg>
